<svg width="49" height="48" viewBox="0 0 49 48" fill="none" xmlns="http://www.w3.org/2000/svg">
<rect x="0.5" width="48" height="48" rx="24" fill="#5E5CE6"/>
<path d="M17.166 35.543C16.3913 35.543 15.7858 35.3281 15.3496 34.8984C14.9199 34.4753 14.7051 33.8926 14.7051 33.1504V25.5723C15.0111 25.722 15.3366 25.8359 15.6816 25.9141C16.0267 25.9922 16.3848 26.0312 16.7559 26.0312C17.2441 26.0312 17.7064 25.9596 18.1426 25.8164C18.5853 25.6667 18.9889 25.4583 19.3535 25.1914C19.7116 25.4583 20.112 25.6667 20.5547 25.8164C20.9974 25.9596 21.4629 26.0312 21.9512 26.0312C22.4395 26.0312 22.9017 25.9596 23.3379 25.8164C23.7806 25.6667 24.181 25.4616 24.5391 25.2012C24.9036 25.4616 25.304 25.6667 25.7402 25.8164C26.1829 25.9596 26.6452 26.0312 27.127 26.0312C27.6152 26.0312 28.0807 25.9596 28.5234 25.8164C28.9661 25.6667 29.3698 25.4583 29.7344 25.1914C30.0859 25.4583 30.4831 25.6667 30.9258 25.8164C31.3685 25.9596 31.834 26.0312 32.3223 26.0312C32.6934 26.0312 33.0514 25.9889 33.3965 25.9043C33.7415 25.8132 34.0671 25.6895 34.373 25.5332V33.1504C34.373 33.8926 34.1549 34.4753 33.7188 34.8984C33.2891 35.3281 32.6868 35.543 31.9121 35.543H17.166ZM18.3672 33.6582H23.7676V28.834C23.7676 28.5996 23.6992 28.4141 23.5625 28.2773C23.4258 28.1406 23.2402 28.0723 23.0059 28.0723H19.1387C18.9043 28.0723 18.7155 28.1406 18.5723 28.2773C18.4355 28.4141 18.3672 28.5996 18.3672 28.834V33.6582ZM26.6582 31.7051H30.5938C30.8216 31.7051 31.0039 31.6367 31.1406 31.5C31.2839 31.3633 31.3555 31.1777 31.3555 30.9434V28.2285C31.3555 28.0007 31.2839 27.8184 31.1406 27.6816C31.0039 27.5384 30.8216 27.4668 30.5938 27.4668H26.6582C26.4238 27.4668 26.235 27.5384 26.0918 27.6816C25.9551 27.8184 25.8867 28.0007 25.8867 28.2285V30.9434C25.8867 31.1777 25.9551 31.3633 26.0918 31.5C26.235 31.6367 26.4238 31.7051 26.6582 31.7051ZM15.8867 15.7871V15.6211C15.8867 14.9245 16.0951 14.3743 16.5117 13.9707C16.9284 13.5605 17.4915 13.3555 18.2012 13.3555H30.8086C31.5117 13.3555 32.0716 13.5605 32.4883 13.9707C32.9049 14.3743 33.1133 14.9245 33.1133 15.6211V15.7871H15.8867ZM13.543 20.6309C13.5625 20.5918 13.582 20.5527 13.6016 20.5137C13.6276 20.4746 13.6504 20.4323 13.6699 20.3867L15.6133 16.9297H33.3867L35.3203 20.3867C35.3464 20.4323 35.3691 20.4746 35.3887 20.5137C35.4147 20.5527 35.4375 20.5918 35.457 20.6309H13.543ZM16.7266 24.8887C16.1016 24.8887 15.5352 24.7552 15.0273 24.4883C14.5195 24.2214 14.1126 23.873 13.8066 23.4434C13.5072 23.0137 13.3574 22.5482 13.3574 22.0469V21.7734H35.6426V21.9102C35.6426 22.4115 35.4928 22.89 35.1934 23.3457C34.8939 23.7949 34.4902 24.166 33.9824 24.459C33.4746 24.7454 32.9082 24.8887 32.2832 24.8887C31.7493 24.8887 31.2578 24.778 30.8086 24.5566C30.3659 24.3288 29.9948 24.026 29.6953 23.6484C29.3958 24.026 29.0215 24.3288 28.5723 24.5566C28.123 24.778 27.6315 24.8887 27.0977 24.8887C26.5638 24.8887 26.0723 24.778 25.623 24.5566C25.1738 24.3288 24.8027 24.0228 24.5098 23.6387C24.2038 24.0228 23.8262 24.3288 23.377 24.5566C22.9342 24.778 22.446 24.8887 21.9121 24.8887C21.3783 24.8887 20.8867 24.778 20.4375 24.5566C19.9883 24.3288 19.6172 24.0228 19.3242 23.6387C19.0182 24.0228 18.6406 24.3288 18.1914 24.5566C17.7422 24.778 17.2539 24.8887 16.7266 24.8887Z" fill="white"/>
</svg>
