<svg width="49" height="48" viewBox="0 0 49 48" fill="none" xmlns="http://www.w3.org/2000/svg">
<rect x="0.5" width="48" height="48" rx="24" fill="#64D3FF"/>
<path d="M27.0879 32.0371V25.7871C27.0879 25.5527 27.0195 25.3672 26.8828 25.2305C26.7461 25.0938 26.5605 25.0254 26.3262 25.0254H22.6738C22.446 25.0254 22.2604 25.0938 22.1172 25.2305C21.974 25.3672 21.9023 25.5527 21.9023 25.7871V32.0371H27.0879ZM15.623 31.8906V24.6738L23.8848 17.7402C24.2949 17.3952 24.7051 17.3952 25.1152 17.7402L33.3672 24.6738V31.8906C33.3672 32.6133 33.1523 33.1797 32.7227 33.5898C32.293 34.0065 31.7038 34.2148 30.9551 34.2148H18.0449C17.2962 34.2148 16.7038 34.0065 16.2676 33.5898C15.8379 33.1797 15.623 32.6133 15.623 31.8906ZM12.3809 23.0625C12.3809 22.724 12.5273 22.4342 12.8203 22.1934L22.9961 13.6484C23.4583 13.2643 23.9629 13.0723 24.5098 13.0723C25.0566 13.0723 25.5612 13.2643 26.0234 13.6484L36.1797 22.1934C36.4661 22.4277 36.6094 22.724 36.6094 23.082C36.6094 23.401 36.502 23.6549 36.2871 23.8438C36.0788 24.026 35.8184 24.1172 35.5059 24.1172C35.3366 24.1172 35.1771 24.0814 35.0273 24.0098C34.8776 23.9316 34.7376 23.8405 34.6074 23.7363L24.9785 15.6406C24.8288 15.5104 24.6725 15.4453 24.5098 15.4453C24.347 15.4453 24.1908 15.5104 24.041 15.6406L14.3926 23.7363C14.2624 23.8405 14.1224 23.9316 13.9727 24.0098C13.8229 24.0814 13.6634 24.1172 13.4941 24.1172C13.1556 24.1172 12.8854 24.0163 12.6836 23.8145C12.4818 23.6061 12.3809 23.3555 12.3809 23.0625ZM30.4375 18.0918V15.7383C30.4375 15.5104 30.5059 15.3314 30.6426 15.2012C30.7793 15.071 30.9583 15.0059 31.1797 15.0059H32.6934C32.9212 15.0059 33.1003 15.071 33.2305 15.2012C33.3607 15.3314 33.4258 15.5104 33.4258 15.7383V20.6016L30.4375 18.0918Z" fill="white"/>
</svg>
