<svg width="48" height="59" viewBox="0 0 48 59" fill="none" xmlns="http://www.w3.org/2000/svg">
<ellipse cx="24" cy="24.1803" rx="24" ry="24.1803" fill="#FF375F"/>
<ellipse cx="23.7401" cy="23.919" rx="15.827" ry="15.9459" fill="white"/>
<ellipse cx="23.7602" cy="55.3729" rx="3.6" ry="3.62705" fill="#FF375F"/>
<path d="M23.741 32.2356C23.658 32.2356 23.5584 32.2107 23.4422 32.1609C23.3315 32.1166 23.2319 32.0668 23.1434 32.0115C21.5828 31.0154 20.2298 29.9722 19.0843 28.8821C17.9388 27.7864 17.0534 26.663 16.428 25.512C15.8082 24.3554 15.4984 23.1877 15.4984 22.009C15.4984 21.273 15.6146 20.6007 15.847 19.9919C16.0849 19.3777 16.4142 18.8464 16.8348 18.3982C17.2554 17.95 17.7451 17.6041 18.304 17.3606C18.8629 17.1171 19.4689 16.9954 20.1219 16.9954C20.9354 16.9954 21.6492 17.2029 22.2635 17.6179C22.8777 18.033 23.3703 18.5808 23.741 19.2615C24.1173 18.5753 24.6126 18.0274 25.2269 17.6179C25.8411 17.2029 26.5522 16.9954 27.3602 16.9954C28.0132 16.9954 28.6191 17.1171 29.178 17.3606C29.7425 17.6041 30.2322 17.95 30.6473 18.3982C31.0679 18.8464 31.3943 19.3777 31.6268 19.9919C31.8647 20.6007 31.9837 21.273 31.9837 22.009C31.9837 23.1877 31.671 24.3554 31.0457 25.512C30.4259 26.663 29.5433 27.7864 28.3978 28.8821C27.2578 29.9722 25.9075 31.0154 24.347 32.0115C24.2584 32.0668 24.1561 32.1166 24.0399 32.1609C23.9292 32.2107 23.8296 32.2356 23.741 32.2356Z" fill="#FF375F"/>
</svg>
