<svg width="49" height="48" viewBox="0 0 49 48" fill="none" xmlns="http://www.w3.org/2000/svg">
<rect x="0.5" width="48" height="48" rx="24" fill="#31D158"/>
<path d="M11.6973 27.0273C11.6973 26.4349 11.821 25.8359 12.0684 25.2305C12.3158 24.6185 12.7031 24.0326 13.2305 23.4727C12.8138 23.0104 12.5111 22.5156 12.3223 21.9883C12.14 21.4544 12.0488 20.9238 12.0488 20.3965C12.0488 19.6152 12.2279 18.873 12.5859 18.1699C12.944 17.4668 13.4258 16.8776 14.0312 16.4023C14.6432 15.9206 15.3268 15.6211 16.082 15.5039C16.1341 14.9375 16.3164 14.4199 16.6289 13.9512C16.9479 13.4759 17.3516 13.069 17.8398 12.7305C18.3281 12.3854 18.8652 12.1185 19.4512 11.9297C20.0436 11.7409 20.6393 11.6465 21.2383 11.6465C21.8503 11.6465 22.4362 11.7474 22.9961 11.9492C23.556 12.1445 24.054 12.4538 24.4902 12.877C24.9329 12.4538 25.4342 12.1445 25.9941 11.9492C26.554 11.7474 27.14 11.6465 27.752 11.6465C28.3509 11.6465 28.9434 11.7409 29.5293 11.9297C30.1217 12.1185 30.6621 12.3854 31.1504 12.7305C31.6387 13.069 32.0391 13.4759 32.3516 13.9512C32.6706 14.4199 32.8561 14.9375 32.9082 15.5039C33.6569 15.6211 34.3372 15.9206 34.9492 16.4023C35.5612 16.8776 36.043 17.4668 36.3945 18.1699C36.7526 18.873 36.9316 19.6152 36.9316 20.3965C36.9316 20.9238 36.8405 21.4544 36.6582 21.9883C36.4759 22.5156 36.1764 23.0104 35.7598 23.4727C36.2871 24.0326 36.6745 24.6185 36.9219 25.2305C37.1693 25.8359 37.293 26.4349 37.293 27.0273C37.293 27.8411 37.1204 28.5605 36.7754 29.1855C36.4303 29.804 35.9551 30.2891 35.3496 30.6406C34.7507 30.9922 34.054 31.168 33.2598 31.168C32.9082 31.168 32.5404 31.1224 32.1562 31.0312C31.7721 30.9401 31.3815 30.8001 30.9844 30.6113C30.7695 30.7871 30.4766 30.9759 30.1055 31.1777C29.7344 31.373 29.3014 31.5456 28.8066 31.6953C28.3118 31.8451 27.778 31.9329 27.2051 31.959C27.3158 31.4577 27.4883 30.9076 27.7227 30.3086C27.9635 29.7096 28.224 29.1237 28.5039 28.5508C28.7839 27.9779 29.041 27.4733 29.2754 27.0371C28.4941 26.9785 27.8724 26.7637 27.4102 26.3926C26.9479 26.015 26.6126 25.5495 26.4043 24.9961C26.1439 25.1784 25.8542 25.3184 25.5352 25.416C25.2227 25.5072 24.8743 25.5527 24.4902 25.5527C24.1126 25.5527 23.7676 25.5072 23.4551 25.416C23.1426 25.3184 22.8529 25.1784 22.5859 24.9961C22.3776 25.5495 22.0391 26.015 21.5703 26.3926C21.1081 26.7637 20.4896 26.9785 19.7148 27.0371C19.9492 27.4733 20.2064 27.9779 20.4863 28.5508C20.7663 29.1237 21.0234 29.7096 21.2578 30.3086C21.4987 30.9076 21.6745 31.4577 21.7852 31.959C21.2122 31.9329 20.6784 31.8451 20.1836 31.6953C19.6888 31.5456 19.2559 31.373 18.8848 31.1777C18.5137 30.9759 18.2207 30.7871 18.0059 30.6113C17.6022 30.8001 17.2083 30.9401 16.8242 31.0312C16.4466 31.1224 16.0788 31.168 15.7207 31.168C14.9329 31.168 14.2363 30.9922 13.6309 30.6406C13.0254 30.2891 12.5501 29.804 12.2051 29.1855C11.8665 28.5605 11.6973 27.8411 11.6973 27.0273ZM24.4902 37.3984C24.0085 37.3984 23.6178 37.3203 23.3184 37.1641C23.0254 37.0078 22.8789 36.806 22.8789 36.5586C22.8789 36.3503 22.8919 36.0312 22.918 35.6016C22.9505 35.1784 22.9798 34.7129 23.0059 34.2051C23.0384 33.7038 23.0547 33.2318 23.0547 32.7891C23.0547 32.4245 22.9928 32.0046 22.8691 31.5293C22.752 31.0605 22.5924 30.569 22.3906 30.0547C22.1888 29.5339 21.9674 29.013 21.7266 28.4922C21.4857 27.9714 21.2415 27.4733 20.9941 26.998C20.7467 26.5163 20.5156 26.0866 20.3008 25.709L21.4629 24.4883C21.7949 25.0547 22.0846 25.5625 22.332 26.0117C22.5794 26.4609 22.8073 26.8939 23.0156 27.3105C23.224 27.7207 23.4355 28.1634 23.6504 28.6387L23.6309 24.3418L25.3008 24.4102L25.3398 28.6289C25.5547 28.1536 25.763 27.7142 25.9648 27.3105C26.1732 26.9004 26.4043 26.4577 26.6582 25.9824C26.9186 25.5072 27.2311 24.9375 27.5957 24.2734L28.9727 25.0547C28.7057 25.5625 28.429 26.0964 28.1426 26.6562C27.8626 27.2161 27.5892 27.7793 27.3223 28.3457C27.0618 28.9121 26.8275 29.4655 26.6191 30.0059C26.4108 30.5462 26.2448 31.054 26.1211 31.5293C25.9974 32.0046 25.9355 32.4245 25.9355 32.7891C25.9355 33.2318 25.9486 33.7038 25.9746 34.2051C26.0072 34.7129 26.0365 35.1784 26.0625 35.6016C26.0951 36.0312 26.1113 36.3503 26.1113 36.5586C26.1113 36.806 25.9616 37.0078 25.6621 37.1641C25.3691 37.3203 24.9785 37.3984 24.4902 37.3984Z" fill="white"/>
</svg>
