<svg width="24" height="50" viewBox="0 0 24 50" fill="none" xmlns="http://www.w3.org/2000/svg">
<g filter="url(#filter0_d_75_1748)">
<path d="M4.50391 7.81641C4.50391 6.46224 4.82943 5.23177 5.48047 4.125C6.14453 3.00521 7.02995 2.11328 8.13672 1.44922C9.24349 0.785156 10.474 0.453125 11.8281 0.453125C13.1953 0.453125 14.4323 0.785156 15.5391 1.44922C16.6458 2.11328 17.5247 3.00521 18.1758 4.125C18.8398 5.23177 19.1719 6.46224 19.1719 7.81641C19.1719 8.96224 18.931 10.0234 18.4492 11C17.9674 11.9766 17.3099 12.8099 16.4766 13.5C15.6432 14.1901 14.6992 14.6654 13.6445 14.9258V33.0508C13.6445 34.4961 13.5859 35.7721 13.4688 36.8789C13.3516 37.9857 13.2018 38.9167 13.0195 39.6719C12.8503 40.4271 12.6549 40.9935 12.4336 41.3711C12.2253 41.7617 12.0234 41.957 11.8281 41.957C11.6328 41.957 11.431 41.7617 11.2227 41.3711C11.0143 40.9805 10.819 40.4076 10.6367 39.6523C10.4544 38.8971 10.3047 37.9661 10.1875 36.8594C10.0703 35.7656 10.0117 34.4961 10.0117 33.0508V14.9258C8.95703 14.6654 8.01302 14.1901 7.17969 13.5C6.34635 12.8099 5.6888 11.9766 5.20703 11C4.73828 10.0234 4.50391 8.96224 4.50391 7.81641ZM9.71875 8.20703C10.4089 8.20703 11.0013 7.95964 11.4961 7.46484C11.9909 6.95703 12.2383 6.36458 12.2383 5.6875C12.2383 5.01042 11.9909 4.42448 11.4961 3.92969C11.0013 3.4349 10.4089 3.1875 9.71875 3.1875C9.05469 3.1875 8.46875 3.4349 7.96094 3.92969C7.46615 4.42448 7.21875 5.01042 7.21875 5.6875C7.21875 6.36458 7.46615 6.95703 7.96094 7.46484C8.46875 7.95964 9.05469 8.20703 9.71875 8.20703Z" fill="#FF3B2F"/>
</g>
<defs>
<filter id="filter0_d_75_1748" x="0.503906" y="0.453125" width="22.668" height="49.5039" filterUnits="userSpaceOnUse" color-interpolation-filters="sRGB">
<feFlood flood-opacity="0" result="BackgroundImageFix"/>
<feColorMatrix in="SourceAlpha" type="matrix" values="0 0 0 0 0 0 0 0 0 0 0 0 0 0 0 0 0 0 127 0" result="hardAlpha"/>
<feOffset dy="4"/>
<feGaussianBlur stdDeviation="2"/>
<feComposite in2="hardAlpha" operator="out"/>
<feColorMatrix type="matrix" values="0 0 0 0 0 0 0 0 0 0 0 0 0 0 0 0 0 0 0.25 0"/>
<feBlend mode="normal" in2="BackgroundImageFix" result="effect1_dropShadow_75_1748"/>
<feBlend mode="normal" in="SourceGraphic" in2="effect1_dropShadow_75_1748" result="shape"/>
</filter>
</defs>
</svg>
