<svg width="49" height="48" viewBox="0 0 49 48" fill="none" xmlns="http://www.w3.org/2000/svg">
<rect x="0.5" width="48" height="48" rx="24" fill="#FF375F"/>
<path d="M24.5 34.0098C24.3633 34.0098 24.1973 33.9609 24.002 33.8633C23.8066 33.7721 23.6211 33.668 23.4453 33.5508C21.6354 32.3789 20.0599 31.1484 18.7188 29.8594C17.3841 28.5638 16.349 27.2324 15.6133 25.8652C14.8776 24.4915 14.5098 23.1081 14.5098 21.7148C14.5098 20.7904 14.6562 19.9473 14.9492 19.1855C15.2487 18.4238 15.6589 17.7663 16.1797 17.2129C16.707 16.6595 17.3125 16.2363 17.9961 15.9434C18.6862 15.6439 19.4284 15.4941 20.2227 15.4941C21.2057 15.4941 22.0553 15.7415 22.7715 16.2363C23.4941 16.7311 24.0703 17.3757 24.5 18.1699C24.9362 17.3691 25.5124 16.7246 26.2285 16.2363C26.9512 15.7415 27.804 15.4941 28.7871 15.4941C29.5684 15.4941 30.304 15.6439 30.9941 15.9434C31.6908 16.2363 32.2995 16.6595 32.8203 17.2129C33.3411 17.7663 33.748 18.4238 34.041 19.1855C34.3405 19.9473 34.4902 20.7904 34.4902 21.7148C34.4902 23.1081 34.1224 24.4915 33.3867 25.8652C32.651 27.2324 31.6126 28.5638 30.2715 29.8594C28.9368 31.1484 27.3678 32.3789 25.5645 33.5508C25.3822 33.668 25.1934 33.7721 24.998 33.8633C24.8092 33.9609 24.6432 34.0098 24.5 34.0098Z" fill="white"/>
</svg>
