<svg width="49" height="48" viewBox="0 0 49 48" fill="none" xmlns="http://www.w3.org/2000/svg">
<rect x="0.5" width="48" height="48" rx="24" fill="#0B84FF"/>
<path d="M36.7559 19.7422C37.1139 19.9049 37.3874 20.1263 37.5762 20.4062C37.765 20.6862 37.8594 20.9824 37.8594 21.2949C37.8594 21.6139 37.765 21.9102 37.5762 22.1836C37.3874 22.457 37.1139 22.6751 36.7559 22.8379L27.2246 27.2031C26.7038 27.444 26.222 27.6198 25.7793 27.7305C25.3366 27.8346 24.9102 27.8835 24.5 27.877C24.0833 27.8835 23.6536 27.8346 23.2109 27.7305C22.7747 27.6198 22.293 27.444 21.7656 27.2031L17.4883 25.25L23.4844 22.4766C23.8099 22.5742 24.1549 22.623 24.5195 22.623C24.9102 22.623 25.278 22.5677 25.623 22.457C25.9681 22.3398 26.248 22.1836 26.4629 21.9883C26.6777 21.7865 26.7852 21.5553 26.7852 21.2949C26.7852 21.0345 26.6777 20.8066 26.4629 20.6113C26.248 20.416 25.9681 20.2663 25.623 20.1621C25.278 20.0514 24.9102 19.9961 24.5195 19.9961C24.1419 19.9961 23.7773 20.0514 23.4258 20.1621C23.0807 20.2728 22.7975 20.4258 22.5762 20.6211C22.3613 20.8099 22.2539 21.0345 22.2539 21.2949C22.2539 21.36 22.2702 21.4186 22.3027 21.4707L15.8672 24.4688L12.2344 22.8379C11.8828 22.6816 11.6126 22.4668 11.4238 22.1934C11.235 21.9134 11.1406 21.6139 11.1406 21.2949C11.1406 20.9824 11.235 20.6862 11.4238 20.4062C11.6126 20.1263 11.8828 19.9049 12.2344 19.7422L21.7656 15.3867C22.2865 15.1523 22.7682 14.9798 23.2109 14.8691C23.6536 14.7585 24.0833 14.7064 24.5 14.7129C24.9102 14.7064 25.3366 14.7585 25.7793 14.8691C26.222 14.9798 26.7038 15.1523 27.2246 15.3867L36.7559 19.7422ZM17.459 26.8809L21.1406 28.5605C22.3581 29.1139 23.4779 29.3874 24.5 29.3809C25.5221 29.3874 26.6387 29.1139 27.8496 28.5605L34.2852 25.6113V28.5215C34.2852 29.3027 34.0443 30.0319 33.5625 30.709C33.0872 31.3861 32.4134 31.9785 31.541 32.4863C30.6686 33.0007 29.6335 33.401 28.4355 33.6875C27.2376 33.974 25.9258 34.1172 24.5 34.1172C23.0677 34.1172 21.7526 33.9707 20.5547 33.6777C19.3568 33.3913 18.3249 32.9876 17.459 32.4668V26.8809ZM14.7148 25.6211L15.9062 26.168V31.1973C15.5156 30.7741 15.2194 30.3281 15.0176 29.8594C14.8158 29.3906 14.7148 28.9447 14.7148 28.5215V25.6211ZM15.9062 34.4688V31.1973C16.1081 31.4316 16.3392 31.653 16.5996 31.8613C16.8665 32.0762 17.153 32.278 17.459 32.4668V34.4688H15.9062ZM14.9883 34.7715C14.9883 34.3353 15.1185 33.9837 15.3789 33.7168C15.6458 33.4564 15.9974 33.3262 16.4336 33.3262H16.9219C17.3581 33.3262 17.7064 33.4564 17.9668 33.7168C18.2337 33.9837 18.3672 34.3353 18.3672 34.7715V37.2812C18.3672 37.7174 18.2337 38.0658 17.9668 38.3262C17.7064 38.5931 17.3581 38.7266 16.9219 38.7266H16.4336C15.9974 38.7266 15.6458 38.5931 15.3789 38.3262C15.1185 38.0658 14.9883 37.7174 14.9883 37.2812V34.7715Z" fill="white"/>
</svg>
