<svg width="294" height="294" viewBox="0 0 294 294" fill="none" xmlns="http://www.w3.org/2000/svg">
<g filter="url(#filter0_d_440_3056)">
<rect x="32" y="28" width="230" height="94.3" rx="20" fill="#0063CE"/>
<path d="M153.9 142.3C153.9 131.254 162.855 122.3 173.9 122.3H262V238C262 249.046 253.046 258 242 258H173.9C162.855 258 153.9 249.046 153.9 238V142.3Z" fill="#32ACE6"/>
<path d="M32.0088 122.208H147.342V258H52.0088C40.9631 258 32.0088 249.046 32.0088 238V122.208Z" fill="#A5E2FF"/>
<path fill-rule="evenodd" clip-rule="evenodd" d="M262 124.6V68.25L32 107.35V166L99.3205 154.331C109.896 152.498 120.033 159.339 122.289 169.832L141.25 258H197.6L178.483 162.415C176.332 151.661 183.243 141.18 193.974 138.921L262 124.6Z" fill="#F2F2F7"/>
<mask id="path-5-outside-1_440_3056" maskUnits="userSpaceOnUse" x="104.7" y="46.5" width="84" height="195" fill="black">
<rect fill="white" x="104.7" y="46.5" width="84" height="195"/>
<path fill-rule="evenodd" clip-rule="evenodd" d="M147.079 62.5C131.4 62.5 119.474 76.5784 122.052 92.0438L132.133 152.529C133.35 159.835 139.672 165.19 147.079 165.19C154.486 165.19 160.808 159.835 162.026 152.529L172.106 92.0439C174.684 76.5784 162.758 62.5 147.079 62.5ZM147.078 225.093C158.894 225.093 168.472 215.515 168.472 203.699C168.472 191.884 158.894 182.305 147.078 182.305C135.263 182.305 125.684 191.884 125.684 203.699C125.684 215.515 135.263 225.093 147.078 225.093Z"/>
</mask>
<path fill-rule="evenodd" clip-rule="evenodd" d="M147.079 62.5C131.4 62.5 119.474 76.5784 122.052 92.0438L132.133 152.529C133.35 159.835 139.672 165.19 147.079 165.19C154.486 165.19 160.808 159.835 162.026 152.529L172.106 92.0439C174.684 76.5784 162.758 62.5 147.079 62.5ZM147.078 225.093C158.894 225.093 168.472 215.515 168.472 203.699C168.472 191.884 158.894 182.305 147.078 182.305C135.263 182.305 125.684 191.884 125.684 203.699C125.684 215.515 135.263 225.093 147.078 225.093Z" fill="#FF3B2F"/>
<path d="M122.052 92.0438L137.834 89.4135L122.052 92.0438ZM132.133 152.529L116.35 155.159L132.133 152.529ZM162.026 152.529L177.808 155.159L162.026 152.529ZM172.106 92.0439L187.889 94.6742L172.106 92.0439ZM137.834 89.4135C136.882 83.7006 141.287 78.5 147.079 78.5V46.5C121.513 46.5 102.066 69.4563 106.269 94.6742L137.834 89.4135ZM147.915 149.898L137.834 89.4135L106.269 94.6742L116.35 155.159L147.915 149.898ZM147.079 149.19C147.493 149.19 147.847 149.49 147.915 149.898L116.35 155.159C118.854 170.181 131.85 181.19 147.079 181.19V149.19ZM146.243 149.898C146.311 149.49 146.665 149.19 147.079 149.19V181.19C162.308 181.19 175.304 170.181 177.808 155.159L146.243 149.898ZM156.324 89.4135L146.243 149.898L177.808 155.159L187.889 94.6742L156.324 89.4135ZM147.079 78.5C152.871 78.5 157.276 83.7006 156.324 89.4135L187.889 94.6742C192.092 69.4563 172.645 46.5 147.079 46.5V78.5ZM152.472 203.699C152.472 206.678 150.057 209.093 147.078 209.093V241.093C167.73 241.093 184.472 224.351 184.472 203.699H152.472ZM147.078 198.305C150.057 198.305 152.472 200.72 152.472 203.699H184.472C184.472 183.047 167.73 166.305 147.078 166.305V198.305ZM141.684 203.699C141.684 200.72 144.099 198.305 147.078 198.305V166.305C126.426 166.305 109.684 183.047 109.684 203.699H141.684ZM147.078 209.093C144.099 209.093 141.684 206.678 141.684 203.699H109.684C109.684 224.351 126.426 241.093 147.078 241.093V209.093Z" fill="#F2F2F7" mask="url(#path-5-outside-1_440_3056)"/>
</g>
<defs>
<filter id="filter0_d_440_3056" x="0" y="0" width="294" height="294" filterUnits="userSpaceOnUse" color-interpolation-filters="sRGB">
<feFlood flood-opacity="0" result="BackgroundImageFix"/>
<feColorMatrix in="SourceAlpha" type="matrix" values="0 0 0 0 0 0 0 0 0 0 0 0 0 0 0 0 0 0 127 0" result="hardAlpha"/>
<feOffset dy="4"/>
<feGaussianBlur stdDeviation="16"/>
<feComposite in2="hardAlpha" operator="out"/>
<feColorMatrix type="matrix" values="0 0 0 0 0 0 0 0 0 0 0 0 0 0 0 0 0 0 0.25 0"/>
<feBlend mode="normal" in2="BackgroundImageFix" result="effect1_dropShadow_440_3056"/>
<feBlend mode="normal" in="SourceGraphic" in2="effect1_dropShadow_440_3056" result="shape"/>
</filter>
</defs>
</svg>
