<svg width="49" height="48" viewBox="0 0 49 48" fill="none" xmlns="http://www.w3.org/2000/svg">
<rect x="0.5" width="48" height="48" rx="24" fill="#FE9F0C"/>
<path d="M22.9668 27.9453H26.0234C26.8568 27.9453 27.2734 27.5482 27.2734 26.7539V25.9922C28.2305 25.9206 29.1875 25.8066 30.1445 25.6504C31.1016 25.4876 32.0814 25.2695 33.084 24.9961C34.0931 24.7227 35.138 24.3743 36.2188 23.9512V21.9199C35.0143 22.4668 33.7708 22.9128 32.4883 23.2578C31.2057 23.6029 29.8939 23.8568 28.5527 24.0195C27.2181 24.1823 25.8639 24.2637 24.4902 24.2637C23.123 24.2637 21.7689 24.1823 20.4277 24.0195C19.0931 23.8568 17.7845 23.6029 16.502 23.2578C15.2194 22.9128 13.9759 22.4668 12.7715 21.9199V23.9512C13.8587 24.3743 14.9036 24.7227 15.9062 24.9961C16.9089 25.2695 17.8887 25.4876 18.8457 25.6504C19.8027 25.8066 20.7598 25.9206 21.7168 25.9922V26.7539C21.7168 27.5482 22.1335 27.9453 22.9668 27.9453ZM16.0332 34.3516C14.9655 34.3516 14.1549 34.0781 13.6016 33.5312C13.0482 32.9844 12.7715 32.1803 12.7715 31.1191V21.5098C12.7715 20.4421 13.0482 19.638 13.6016 19.0977C14.1549 18.5508 14.9655 18.2773 16.0332 18.2773H32.957C34.0312 18.2773 34.8418 18.5508 35.3887 19.0977C35.9421 19.638 36.2188 20.4421 36.2188 21.5098V31.1191C36.2188 32.1803 35.9421 32.9844 35.3887 33.5312C34.8418 34.0781 34.0312 34.3516 32.957 34.3516H16.0332ZM19.2559 19.0391V17.3008C19.2559 16.3698 19.513 15.6797 20.0273 15.2305C20.5417 14.7747 21.2546 14.5469 22.166 14.5469H26.8145C27.765 14.5469 28.4876 14.7747 28.9824 15.2305C29.4837 15.6797 29.7344 16.3698 29.7344 17.3008V19.0195H27.7617V17.3789C27.7617 17.0469 27.6706 16.793 27.4883 16.6172C27.306 16.4349 27.0456 16.3438 26.707 16.3438H22.293C21.9479 16.3438 21.681 16.4349 21.4922 16.6172C21.3099 16.793 21.2188 17.0469 21.2188 17.3789V19.0391H19.2559Z" fill="white"/>
</svg>
